<?xml version="1.0" standalone="no"?>
<!DOCTYPE svg PUBLIC "-//W3C//DTD SVG 1.1//EN" "http://www.w3.org/Graphics/SVG/1.1/DTD/svg11.dtd">
<!--Generator: Xara Designer (www.xara.com), SVG filter version: 5.0.0.2-->
<svg stroke-width="0.501" stroke-linejoin="bevel" fill-rule="evenodd" xmlns:xlink="http://www.w3.org/1999/xlink" xmlns="http://www.w3.org/2000/svg" version="1.1" overflow="visible" width="18pt" height="18pt" viewBox="0 0 18 18">
 <defs>
  <marker id="DefaultArrow2" markerUnits="strokeWidth" viewBox="0 0 1 1" markerWidth="1" markerHeight="1" overflow="visible" orient="auto">
   <!-- REF_ARROW_STRAIGHT (-2) -->
   <g transform="scale(0.0092592592)">
    <!-- 1/108 -->
    <path d="M -9 54 L -9 -54 L 117 0 z"/>
   </g>
  </marker>
  <marker id="DefaultArrow3" markerUnits="strokeWidth" viewBox="0 0 1 1" markerWidth="1" markerHeight="1" overflow="visible" orient="auto">
   <!-- REF_ARROW_ANGLED -->
   <g transform="scale(0.0092592592)">
    <path d="M -27 54 L -9 0 L -27 -54 L 135 0 z"/>
   </g>
  </marker>
  <marker id="DefaultArrow4" markerUnits="strokeWidth" viewBox="0 0 1 1" markerWidth="1" markerHeight="1" overflow="visible" orient="auto">
   <!-- REF_ARROW_ROUNDED -->
   <g transform="scale(0.0092592592)">
    <path d="M -9,0 L -9,-45 C -9,-51.708 2.808,-56.580 9,-54 L 117,-9 C 120.916,-7.369 126.000,-4.242 126,0 C 126,4.242 120.916,7.369 117,9 L 9,54 C 2.808,56.580 -9,51.708 -9,45 z"/>
   </g>
  </marker>
  <marker id="DefaultArrow5" markerUnits="strokeWidth" viewBox="0 0 1 1" markerWidth="1" markerHeight="1" overflow="visible" orient="auto">
   <!-- REF_ARROW_SPOT -->
   <g transform="scale(0.0092592592)">
    <path d="M -54, 0 C -54,29.807 -29.807,54 0,54 C 29.807,54 54,29.807 54,0 C 54,-29.807 29.807,-54 0,-54 C -29.807,-54 -54,-29.807 -54,0 z"/>
   </g>
  </marker>
  <marker id="DefaultArrow6" markerUnits="strokeWidth" viewBox="0 0 1 1" markerWidth="1" markerHeight="1" overflow="visible" orient="auto">
   <!-- REF_ARROW_DIAMOND -->
   <g transform="scale(0.0092592592)">
    <path d="M -63,0 L 0,63 L 63,0 L 0,-63 z"/>
   </g>
  </marker>
  <marker id="DefaultArrow7" markerUnits="strokeWidth" viewBox="0 0 1 1" markerWidth="1" markerHeight="1" overflow="visible" orient="auto">
   <!-- REF_ARROW_FEATHER -->
   <g transform="scale(0.0092592592)">
    <path d="M 18,-54 L 108,-54 L 63,0 L 108,54 L 18, 54 L -36,0 z"/>
   </g>
  </marker>
  <marker id="DefaultArrow8" markerUnits="strokeWidth" viewBox="0 0 1 1" markerWidth="1" markerHeight="1" overflow="visible" orient="auto">
   <!-- REF_ARROW_FEATHER2 -->
   <g transform="scale(0.0092592592)">
    <path d="M -36,0 L 18,-54 L 54,-54 L 18,-18 L 27,-18 L 63,-54 L 99,-54 L 63,-18 L 72,-18 L 108,-54 L 144,-54 L 90,0 L 144,54 L 108,54 L 72,18 L 63,18 L 99,54 L 63,54 L 27,18 L 18,18 L 54,54 L 18,54 z"/>
   </g>
  </marker>
  <marker id="DefaultArrow9" markerUnits="strokeWidth" viewBox="0 0 1 1" markerWidth="1" markerHeight="1" overflow="visible" orient="auto">
   <!-- REF_ARROW_HOLLOWDIAMOND -->
   <g transform="scale(0.0092592592)">
    <path d="M 0,45 L -45,0 L 0, -45 L 45, 0 z M 0, 63 L-63, 0 L 0, -63 L 63, 0 z"/>
   </g>
  </marker>
  <filter id="StainedFilter">
   <feBlend mode="multiply" in2="BackgroundImage" in="SourceGraphic" result="blend"/>
   <feComposite in="blend" in2="SourceAlpha" operator="in" result="comp"/>
  </filter>
  <filter id="BleachFilter">
   <feBlend mode="screen" in2="BackgroundImage" in="SourceGraphic" result="blend"/>
   <feComposite in="blend" in2="SourceAlpha" operator="in" result="comp"/>
  </filter>
  <filter id="InvertTransparencyBitmapFilter">
   <feComponentTransfer>
    <feFuncR type="gamma" amplitude="1.055" exponent=".416666666" offset="-0.055"/>
    <feFuncG type="gamma" amplitude="1.055" exponent=".416666666" offset="-0.055"/>
    <feFuncB type="gamma" amplitude="1.055" exponent=".416666666" offset="-0.055"/>
   </feComponentTransfer>
   <feComponentTransfer>
    <feFuncR type="linear" slope="-1" intercept="1"/>
    <feFuncG type="linear" slope="-1" intercept="1"/>
    <feFuncB type="linear" slope="-1" intercept="1"/>
    <feFuncA type="linear" slope="1" intercept="0"/>
   </feComponentTransfer>
   <feComponentTransfer>
    <feFuncR type="gamma" amplitude="1" exponent="2.4" offset="0"/>
    <feFuncG type="gamma" amplitude="1" exponent="2.4" offset="0"/>
    <feFuncB type="gamma" amplitude="1" exponent="2.4" offset="0"/>
   </feComponentTransfer>
  </filter>
 </defs>
 <g id="Document" fill="none" stroke="black" font-family="Times New Roman" font-size="16" transform="scale(1 -1)">
  <g id="Spread" transform="translate(0 -18)">
   <g id="Layer 1">
    <path d="M 25.057,9.418 L 49.057,9.418 L 49.057,-14.582 L 25.057,-14.582 L 25.057,9.418" stroke="none"/>
    <path d="M 33.471,-1.769 C 33.471,0.472 35.351,2.291 37.667,2.291 C 39.983,2.291 41.863,0.472 41.863,-1.769 C 41.863,-4.01 39.983,-5.829 37.667,-5.829 C 35.351,-5.829 33.471,-4.01 33.471,-1.769 Z" stroke="none" stroke-opacity="0.850980" fill="#800000" stroke-width="0" fill-rule="evenodd" stroke-linejoin="round" marker-start="none" marker-end="none" stroke-miterlimit="79.8403193612775" fill-opacity="0.000000"/>
    <path d="M 18.006,18.002 L 18.006,0.001 L 0.005,0.001 L 0.005,18.002 L 18.006,18.002 Z" stroke="none" fill="#282828" stroke-width="0.75" stroke-linejoin="miter" marker-start="none" marker-end="none" stroke-miterlimit="79.8403193612775"/>
    <g id="Group" stroke-width="0.991" stroke-miterlimit="79.8403193612775">
     <path d="M 4.857,9.788 C 4.885,8.78 5.096,7.838 5.445,7.02 L 12.66,7.02 C 13.013,7.904 13.2,8.93 13.171,10.022 C 13.081,13.219 11.146,15.761 8.851,15.698 C 6.557,15.634 4.768,12.985 4.857,9.788 Z" stroke-linejoin="miter" stroke="none" fill="#b4b4b4" marker-start="none" marker-end="none" stroke-miterlimit="40.3632694248234"/>
     <path d="M 9.176,3.12 C 10.687,3.162 11.978,4.326 12.66,6.029 L 5.445,6.029 C 6.202,4.256 7.605,3.078 9.176,3.12 Z" stroke-linejoin="miter" stroke="none" fill="#b4b4b4" marker-start="none" marker-end="none" stroke-miterlimit="40.3632694248234"/>
     <g id="Group_1" stroke-linejoin="round" stroke-linecap="round" stroke="#b4b4b4" fill="#282828">
      <path d="M 5.79,10.887 L 4.01,10.875 L 2.839,12.041" fill="none"/>
      <path d="M 5.79,8.32 L 4.01,8.308 L 2.839,9.473" fill="none"/>
      <path d="M 5.79,13.454 L 4.01,13.442 L 2.839,14.608" fill="none"/>
     </g>
     <g id="Group_2" stroke-linejoin="miter" stroke="none" fill="#282828" stroke-miterlimit="40.3632694248234">
      <path d="M 6.171,10.304 C 6.629,10.181 7.103,10.454 7.226,10.913 C 7.349,11.371 7.076,11.845 6.617,11.968 C 6.159,12.091 5.685,11.818 5.562,11.359 C 5.439,10.901 5.712,10.427 6.171,10.304 Z" marker-start="none" marker-end="none"/>
      <path d="M 6.647,7.96 C 7.105,7.837 7.579,8.11 7.702,8.569 C 7.825,9.027 7.552,9.501 7.093,9.624 C 6.635,9.747 6.161,9.474 6.038,9.015 C 5.915,8.557 6.188,8.083 6.647,7.96 Z" marker-start="none" marker-end="none"/>
      <path d="M 7.35,12.648 C 7.808,12.525 8.282,12.798 8.405,13.257 C 8.528,13.715 8.255,14.189 7.796,14.312 C 7.338,14.435 6.864,14.162 6.741,13.703 C 6.618,13.245 6.891,12.771 7.35,12.648 Z" marker-start="none" marker-end="none"/>
     </g>
     <g id="Group_3" stroke-linejoin="round" stroke-linecap="round" stroke="#b4b4b4" fill="#282828">
      <path d="M 12.221,10.887 L 14.001,10.875 L 15.172,12.041" fill="none"/>
      <path d="M 12.221,8.32 L 14.001,8.308 L 15.172,9.473" fill="none"/>
      <path d="M 12.221,13.454 L 14.001,13.442 L 15.172,14.608" fill="none"/>
     </g>
     <g id="Group_4" stroke-linejoin="miter" stroke="none" fill="#282828" stroke-miterlimit="40.3632694248234">
      <path d="M 11.759,10.304 C 11.301,10.181 10.827,10.454 10.704,10.913 C 10.581,11.371 10.854,11.845 11.313,11.968 C 11.771,12.091 12.245,11.818 12.368,11.359 C 12.491,10.901 12.218,10.427 11.759,10.304 Z" marker-start="none" marker-end="none"/>
      <path d="M 11.284,7.96 C 10.826,7.837 10.352,8.11 10.229,8.569 C 10.106,9.027 10.379,9.501 10.838,9.624 C 11.296,9.747 11.77,9.474 11.893,9.015 C 12.016,8.557 11.743,8.083 11.284,7.96 Z" marker-start="none" marker-end="none"/>
      <path d="M 10.581,12.648 C 10.123,12.525 9.649,12.798 9.526,13.257 C 9.403,13.715 9.676,14.189 10.135,14.312 C 10.593,14.435 11.067,14.162 11.19,13.703 C 11.313,13.245 11.04,12.771 10.581,12.648 Z" marker-start="none" marker-end="none"/>
     </g>
     <path d="M 7.486,4.09 L 6.138,2.8" fill="none" stroke-linecap="round" stroke-linejoin="round" stroke="#b4b4b4"/>
     <path d="M 10.509,4.09 L 11.857,2.8" fill="none" stroke-linecap="round" stroke-linejoin="round" stroke="#b4b4b4"/>
    </g>
   </g>
  </g>
 </g>
</svg>
