<?xml version="1.0" encoding="UTF-8" standalone="no"?>
<svg
   xmlns:dc="http://purl.org/dc/elements/1.1/"
   xmlns:cc="http://creativecommons.org/ns#"
   xmlns:rdf="http://www.w3.org/1999/02/22-rdf-syntax-ns#"
   xmlns:svg="http://www.w3.org/2000/svg"
   xmlns="http://www.w3.org/2000/svg"
   xmlns:sodipodi="http://sodipodi.sourceforge.net/DTD/sodipodi-0.dtd"
   xmlns:inkscape="http://www.inkscape.org/namespaces/inkscape"
   id="svg4588"
   height="32"
   width="32"
   version="1.1"
   inkscape:version="0.91 r13725"
   sodipodi:docname="ocpndebugger_pi.svg">
  <sodipodi:namedview
     pagecolor="#ffffff"
     bordercolor="#666666"
     borderopacity="1"
     objecttolerance="10"
     gridtolerance="10"
     guidetolerance="10"
     inkscape:pageopacity="0"
     inkscape:pageshadow="2"
     inkscape:window-width="668"
     inkscape:window-height="480"
     id="namedview10499"
     showgrid="false"
     inkscape:zoom="7.375"
     inkscape:cx="16"
     inkscape:cy="16"
     inkscape:window-x="20"
     inkscape:window-y="43"
     inkscape:window-maximized="0"
     inkscape:current-layer="svg4588" />
  <defs
     id="defs4590">
    <linearGradient
       id="E"
       y2="1055.4"
       gradientUnits="userSpaceOnUse"
       y1="1086.4"
       gradientTransform="matrix(1.0329,0,0,1.0329,-59.414,-1122.2)"
       x2="73.009"
       x1="73.009">
      <stop
         id="stop4324"
         stop-color="#fff"
         offset="0" />
      <stop
         id="stop4326"
         stop-color="#939393"
         offset="1" />
    </linearGradient>
    <linearGradient
       id="F"
       y2="1070.9"
       gradientUnits="userSpaceOnUse"
       y1="1086.4"
       gradientTransform="matrix(1.0329,0,0,1.0329,-59.414,-1090.2)"
       x2="73.009"
       x1="73.009">
      <stop
         id="stop3297-5-3-1-9-9"
         stop-color="#fff"
         offset="0" />
      <stop
         id="stop4354-4-5-0-3"
         stop-color="#fff"
         stop-opacity="0"
         offset="1" />
    </linearGradient>
  </defs>
  <metadata
     id="metadata4593">
    <rdf:RDF>
      <cc:Work
         rdf:about="">
        <dc:format>image/svg+xml</dc:format>
        <dc:type
           rdf:resource="http://purl.org/dc/dcmitype/StillImage" />
        <dc:title />
      </cc:Work>
    </rdf:RDF>
  </metadata>
  <g
     id="g45718"
     style="enable-background:new"
     transform="translate(-2.5004148e-4,-2.5002001e-4)">
    <g
       id="g4276">
      <rect
         id="rect4364"
         style="fill:url(#E);enable-background:new"
         transform="scale(1,-1)"
         ry="3.878"
         width="32"
         y="-32"
         x="0"
         height="32" />
      <rect
         id="rect4366"
         style="fill:url(#F);enable-background:new"
         ry="3.878"
         height="32"
         width="32"
         y="0.00050004001"
         x="0" />
      <rect
         id="rect4426"
         style="fill:none;stroke:#939393;stroke-width:1.02100003;stroke-linecap:round;stroke-linejoin:round;enable-background:new"
         ry="3.7550001"
         height="30.979"
         width="30.979"
         y="0.51050001"
         x="0.51099998" />
    </g>
  </g>
  <g
     id="g1758"
     transform="translate(-276.11327,-275.31632)">
    <path
       id="path26233"
       d="m 287.11,302.44 c 0,0 0,-5 8.0339,-5 8.0339,0 8.0339,5 8.0339,5 0,0 0,2.4107 -8.0339,2.4107 -8.0339,0 -8.0339,-2.1428 -8.0339,-2.4107 z"
       inkscape:connector-curvature="0"
       style="fill:#fce94f;fill-rule:evenodd" />
    <path
       id="path26235"
       d="m 294.38,296.81 c -3.293,-0.0885 -5.3712,1.267 -6.5312,2.6562 -1.1457,1.3721 -1.459,2.768 -1.4688,2.8125 0,0 2.7e-4,0.03 0,0.0312 -0.006,0.0285 -0.0688,0.33791 0.0312,0.6875 0.10454,0.36545 0.35762,0.78029 0.875,1.1562 1.0348,0.75191 3.013,1.3742 7.0938,1.4062 4.084,0.0321 6.3733,-0.61285 7.6875,-1.3125 0.65709,-0.34982 1.0639,-0.6917 1.3125,-1 0.24862,-0.3083 0.34375,-0.625 0.34375,-0.625 l 0.0312,-0.15625 0,-0.125 c 0,0 -0.22743,-1.4633 -1.5312,-2.8438 -1.3002,-1.3766 -3.6854,-2.6802 -7.8125,-2.6875 l -0.0312,0 z m -0.0312,1.25 0.0312,0 c 3.8855,0 5.8488,1.1929 6.9062,2.3125 0.90638,0.95963 1.1099,1.7322 1.1562,1.9688 -0.01,0.0184 0.0131,3e-5 -0.0625,0.0937 -0.13473,0.16706 -0.3827,0.44002 -0.90625,0.71875 -1.0471,0.55746 -3.1439,1.156 -7.0938,1.125 -3.9532,-0.0311 -5.692,-0.65138 -6.3438,-1.125 -0.32589,-0.23681 -0.38045,-0.40982 -0.40625,-0.5 -0.0258,-0.0902 -0.0312,-0.0625 -0.0312,-0.0625 l 0,-0.0312 c 0,0 0.25623,-1.1285 1.2188,-2.2812 0.96252,-1.1528 2.5697,-2.307 5.5312,-2.2188 z"
       inkscape:connector-curvature="0"
       style="fill-rule:evenodd" />
    <path
       id="path8674"
       d="m 299.98,295.37 c -3.588,6.2146 -12.915,7.3283 -16.5,5.2583 -3.5853,-2.07 9.4525,-1.214 13.041,-7.4286 3.588,-6.2146 -3.6259,-16.9 -0.0405,-14.83 3.5853,2.07 7.088,10.785 3.5,17 z"
       inkscape:connector-curvature="0"
       style="fill:#edd400" />
    <path
       id="path2900"
       d="m 296.23,277.72 c -0.22347,-0.0523 -0.48918,-0.0657 -0.71875,0.0937 -0.22957,0.15948 -0.31445,0.41567 -0.34375,0.625 -0.0293,0.20933 -0.0328,0.42814 0,0.65625 0.13109,0.91243 0.613,2.2003 1.0625,3.7812 0.89901,3.162 1.7219,7.2821 0.0625,10.156 -1.6579,2.8716 -5.6737,4.2166 -8.9062,5.0312 -1.6163,0.40735 -3.0048,0.65387 -3.875,1 -0.21754,0.0865 -0.39381,0.18351 -0.5625,0.3125 -0.16869,0.12899 -0.34457,0.34608 -0.375,0.625 -0.0304,0.27892 0.0931,0.51753 0.25,0.6875 0.1569,0.16997 0.34449,0.29359 0.59375,0.4375 1.9889,1.1483 5.2988,1.3519 8.625,0.53125 3.3262,-0.82065 6.6812,-2.7102 8.5625,-5.9688 1.8798,-3.256 1.9016,-7.1264 1,-10.438 -0.90164,-3.3111 -2.6927,-6.0983 -4.6875,-7.25 -0.24869,-0.14358 -0.46403,-0.22895 -0.6875,-0.28125 z m -0.0625,1.0312 c 0.0774,0.031 0.12545,0.0531 0.25,0.125 1.5906,0.91832 3.3698,3.5385 4.2188,6.6562 0.849,3.1178 0.83317,6.6976 -0.875,9.6562 -1.7067,2.956 -4.807,4.7276 -7.9375,5.5 -3.1305,0.77237 -6.3098,0.51547 -7.9062,-0.40625 -0.12899,-0.0745 -0.1543,-0.13577 -0.21875,-0.1875 0.0588,-0.0312 0.0968,-0.0577 0.1875,-0.0937 0.67818,-0.26976 2.1065,-0.55453 3.75,-0.96875 3.287,-0.82843 7.3038,-2.38 9.2338,-5.723 1.9286,-3.3404 1.212,-7.4664 0.2974,-10.683 -0.4573,-1.6084 -0.89899,-2.9844 -1,-3.6875 -0.0126,-0.0879 0.002,-0.12569 0,-0.1875 z"
       inkscape:connector-curvature="0" />
    <path
       id="path8672"
       d="m 296.66,293.11 c -3.588,6.2146 -9.4098,9.5783 -12.995,7.5083 -3.5853,-2.07 -3.5832,-8.7937 0.005,-15.008 3.588,-6.2146 9.4098,-9.5783 12.995,-7.5083 3.5854,2.07 3.5832,8.7937 -0.005,15.008 z"
       inkscape:connector-curvature="0"
       style="fill:#c4a000" />
    <g
       id="g1745"
       transform="matrix(1.1354,0,0,1.1354,-16.295,-29.274)"
       style="fill:#d90000;fill-opacity:0.99530999">
      <rect
         id="rect1603"
         ry="0.4461"
         height="3.9033"
         width="12.23"
         y="278.60001"
         x="264.78" />
      <rect
         id="rect1603-4"
         ry="0.4461"
         transform="matrix(0,1,-1,0,0,0)"
         height="3.9033"
         width="12.23"
         y="-272.85001"
         x="274.44" />
    </g>
    <path
       id="path3781"
       d="m 296.92,277.76 c -1.9957,-1.1522 -4.5479,-0.79789 -6.9953,0.61616 -2.4474,1.41405 -4.8499,3.9003 -6.6829,7.0752 -1.833,3.1749 -2.7693,6.4716 -2.7702,9.2981 -9.1e-4,2.8265 0.95268,5.241 2.9484,6.3932 1.99572,1.1522 4.5635,0.77082 7.0109,-0.64322 2.4474,-1.41404 4.8343,-3.8732 6.6673,-7.0481 1.833,-3.1749 2.7849,-6.4986 2.7858,-9.3252 9.1e-4,-2.8265 -0.9683,-5.2139 -2.964,-6.3662 z m -0.5,0.86602 c 1.5896,0.91777 2.4571,2.8892 2.4562,5.4956 -8.3e-4,2.6065 -0.88909,5.79 -2.6441,8.8297 -1.75501,3.0397 -4.0522,5.3736 -6.309,6.6776 -2.2569,1.304 -4.4135,1.5655 -6.0031,0.64772 -1.5896,-0.91777 -2.4415,-2.9162 -2.4406,-5.5227 8.3e-4,-2.6065 0.87346,-5.7629 2.6284,-8.8026 1.755,-3.0397 4.0678,-5.4007 6.3247,-6.7047 2.2569,-1.304 4.3979,-1.5384 5.9875,-0.62065 z"
       inkscape:connector-curvature="0" />
    <path
       id="path8662"
       d="m 288,288.21 c -0.552,0.95609 -1.4656,1.4632 -2.0392,1.132 -0.57366,-0.3312 -0.59123,-1.376 -0.0392,-2.332 0.552,-0.95609 1.4656,-1.4632 2.0392,-1.132 0.57365,0.3312 0.59123,1.376 0.0392,2.332 z"
       inkscape:connector-curvature="0"
       style="fill:#edd400" />
    <path
       id="path8660"
       d="m 288.21,285.61 c -0.43806,-0.25291 -0.96122,-0.18455 -1.4062,0.0625 -0.44503,0.24705 -0.84882,0.65501 -1.1562,1.1875 -0.30743,0.53249 -0.47731,1.1161 -0.46875,1.625 0.009,0.50894 0.21819,0.99709 0.65625,1.25 0.43806,0.25291 0.96121,0.15331 1.4062,-0.0937 0.44504,-0.24706 0.84882,-0.655 1.1562,-1.1875 0.30743,-0.53249 0.44606,-1.0848 0.4375,-1.5938 -0.009,-0.50894 -0.18693,-0.99709 -0.625,-1.25 z m -0.375,0.65625 c 0.1356,0.0783 0.24436,0.25849 0.25,0.59375 0.006,0.33526 -0.13043,0.79515 -0.375,1.2188 -0.24457,0.42361 -0.55058,0.7435 -0.84375,0.90625 -0.29317,0.16275 -0.52066,0.14079 -0.65625,0.0625 -0.13559,-0.0783 -0.24436,-0.25849 -0.25,-0.59375 -0.006,-0.33526 0.0992,-0.76389 0.34375,-1.1875 0.24457,-0.42361 0.58183,-0.7435 0.875,-0.90625 0.29317,-0.16275 0.52065,-0.17204 0.65625,-0.0937 z"
       inkscape:connector-curvature="0" />
    <path
       id="path4666"
       d="m 288.44,288.03 -0.53125,0.84375 8,5 0.53125,-0.84375 -8,-5 z"
       inkscape:connector-curvature="0"
       style="fill-rule:evenodd" />
  </g>
</svg>
